<svg xmlns="http://www.w3.org/2000/svg" viewBox="0 0 1000 360" width="1000" height="360" role="img" aria-label="971 contributions in the last year, drawn as a rating graph">
<defs>
<clipPath id="frame"><rect width="1000" height="360" rx="14"/></clipPath>

<linearGradient id="bg" x1="0" y1="0" x2="0" y2="1"><stop offset="0" stop-color="#11161d"/><stop offset="1" stop-color="#0a0d12"/></linearGradient>
<linearGradient id="area" x1="0" y1="58" x2="0" y2="208" gradientUnits="userSpaceOnUse"><stop offset="0" stop-color="#4b69ff" stop-opacity="0.35"/><stop offset="1" stop-color="#4b69ff" stop-opacity="0"/></linearGradient>
<linearGradient id="plate" x1="0" y1="0" x2="1" y2="1"><stop offset="0" stop-color="#4b69ff"/><stop offset="1" stop-color="#4b69ff" stop-opacity="0.55"/></linearGradient>
<clipPath id="barclip"><rect x="30" y="322" width="940" height="6" rx="3"/></clipPath>
</defs>
<style>

.eyebrow { font: 700 11px Bahnschrift, 'DIN Alternate', 'Roboto Condensed', 'Arial Narrow', 'Segoe UI', sans-serif; letter-spacing: 3px; fill: #9aa5b1; }
.rating { font: italic 800 46px Bahnschrift, 'DIN Alternate', 'Roboto Condensed', 'Arial Narrow', 'Segoe UI', sans-serif; fill: #fff; letter-spacing: 1px; }
.platelabel { font: 700 10px Bahnschrift, 'DIN Alternate', 'Roboto Condensed', 'Arial Narrow', 'Segoe UI', sans-serif; letter-spacing: 2px; fill: #9aa5b1; }
.grid { stroke: #fff; stroke-opacity: 0.06; }
.axis { font: 600 10px Bahnschrift, 'DIN Alternate', 'Roboto Condensed', 'Arial Narrow', 'Segoe UI', sans-serif; fill: #9aa5b1; fill-opacity: 0.8; }
.tlabel { font: 700 9px Bahnschrift, 'DIN Alternate', 'Roboto Condensed', 'Arial Narrow', 'Segoe UI', sans-serif; letter-spacing: 1.6px; fill: #9aa5b1; }
.tvalue { font: 700 22px Bahnschrift, 'DIN Alternate', 'Roboto Condensed', 'Arial Narrow', 'Segoe UI', sans-serif; fill: #fff; }
.tsub { font: 600 11px Bahnschrift, 'DIN Alternate', 'Roboto Condensed', 'Arial Narrow', 'Segoe UI', sans-serif; fill: #9aa5b1; }
.lang { font: 600 11px Bahnschrift, 'DIN Alternate', 'Roboto Condensed', 'Arial Narrow', 'Segoe UI', sans-serif; fill: #c7ced6; }
.now { transform-box: fill-box; transform-origin: center; animation: now 1.6s ease-in-out infinite; }
@keyframes now { 0%, 100% { transform: scale(1); opacity: 0.9; } 50% { transform: scale(1.8); opacity: 0; } }
.replay { animation: replay 7s linear infinite; }
@keyframes replay { 0% { opacity: 0; } 4%, 88% { opacity: 1; } 96%, 100% { opacity: 0; } }
@media (prefers-reduced-motion: reduce) { * { animation: none !important; } }
</style>
<g clip-path="url(#frame)">

<rect width="1000" height="360" fill="url(#bg)"/>
<rect x="0.5" y="0.5" width="999" height="359" rx="14" fill="none" stroke="#fff" stroke-opacity="0.08"/>
<text x="30" y="40" class="eyebrow">RATING · LAST 12 MONTHS</text>
<g class="plate">
<path d="M46 76H236L222 146H32Z" fill="#000" fill-opacity="0.35"/>
<path d="M42 70H232L218 140H28Z" fill="url(#plate)"/>
<path d="M42 70H60L46 140H28Z" fill="#fff" fill-opacity="0.18"/>
<text x="130" y="122" text-anchor="middle" class="rating">971</text>
<text x="30" y="168" class="platelabel">CONTRIBUTIONS</text>
<text x="30" y="186" class="platelabel" fill-opacity="0.7">93 THIS WEEK</text>
</g>
<line x1="300" x2="966" y1="208" y2="208" class="grid"/><text x="292" y="211" text-anchor="end" class="axis">0</text><line x1="300" x2="966" y1="133" y2="133" class="grid"/><text x="292" y="136" text-anchor="end" class="axis">49</text><line x1="300" x2="966" y1="58" y2="58" class="grid"/><text x="292" y="61" text-anchor="end" class="axis">98</text>
<text x="325.6" y="224" class="axis">O</text><text x="376.8" y="224" class="axis">N</text><text x="440.9" y="224" class="axis">D</text><text x="492.1" y="224" class="axis">J</text><text x="543.3" y="224" class="axis">F</text><text x="594.6" y="224" class="axis">M</text><text x="658.6" y="224" class="axis">A</text><text x="709.8" y="224" class="axis">M</text><text x="773.9" y="224" class="axis">J</text><text x="825.1" y="224" class="axis">J</text><text x="876.3" y="224" class="axis">A</text><text x="940.4" y="224" class="axis">S</text>
<path d="M300 203.4C302.1 199.8 308.5 196 312.8 182C317.1 167.9 321.3 118.2 325.6 119.2C329.9 120.2 334.2 175.9 338.4 188.1C342.7 200.3 347 189.4 351.2 192.7C355.5 196 359.8 205.4 364 208C368.3 210.6 372.6 208 376.8 208C381.1 208 385.4 208 389.7 208C393.9 208 398.2 208 402.5 208C406.7 208 411 208 415.3 208C419.5 208 423.8 208.3 428.1 208C432.3 207.7 436.6 207 440.9 206.5C445.2 206 449.4 204.7 453.7 204.9C458 205.2 462.2 207.7 466.5 208C470.8 208.3 475 206.5 479.3 206.5C483.6 206.5 487.8 209 492.1 208C496.4 207 500.7 200.6 504.9 200.3C509.2 200.1 513.5 208.5 517.7 206.5C522 204.4 526.3 202.6 530.5 188.1C534.8 173.6 539.1 118.5 543.3 119.2C547.6 120 551.9 184.3 556.2 192.7C560.4 201.1 564.7 171.3 569 169.7C573.2 168.2 577.5 180.2 581.8 183.5C586 186.8 590.3 185.6 594.6 189.6C598.8 193.7 603.1 204.9 607.4 208C611.7 211.1 615.9 208.3 620.2 208C624.5 207.7 628.7 206.5 633 206.5C637.3 206.5 641.5 208.3 645.8 208C650.1 207.7 654.3 216.2 658.6 204.9C662.9 193.7 667.2 140.4 671.4 140.7C675.7 140.9 680 195.2 684.2 206.5C688.5 217.7 692.8 214.6 697 208C701.3 201.4 705.6 170.2 709.8 166.7C714.1 163.1 718.4 183 722.7 186.6C726.9 190.1 731.2 191.9 735.5 188.1C739.7 184.3 744 162.3 748.3 163.6C752.5 164.9 756.8 197 761.1 195.8C765.3 194.5 769.6 163.4 773.9 156C778.2 148.6 782.4 144 786.7 151.4C791 158.8 795.2 197.5 799.5 200.3C803.8 203.2 808 179.9 812.3 168.2C816.6 156.5 820.8 137.3 825.1 129.9C829.4 122.5 833.7 121.5 837.9 123.8C842.2 126.1 846.5 148.1 850.7 143.7C855 139.4 859.3 90.4 863.5 97.8C867.8 105.2 872.1 173.3 876.3 188.1C880.6 202.9 884.9 189.6 889.2 186.6C893.4 183.5 897.7 176.9 902 169.7C906.2 162.6 910.5 137.3 914.8 143.7C919 150.1 923.3 198.6 927.6 208C931.8 217.4 936.1 225.3 940.4 200.3C944.7 175.3 948.9 74.1 953.2 58C957.5 41.9 963.9 96.3 966 103.9L966 208L300 208Z" fill="url(#area)" class="fill"/>
<path d="M300 203.4C302.1 199.8 308.5 196 312.8 182C317.1 167.9 321.3 118.2 325.6 119.2C329.9 120.2 334.2 175.9 338.4 188.1C342.7 200.3 347 189.4 351.2 192.7C355.5 196 359.8 205.4 364 208C368.3 210.6 372.6 208 376.8 208C381.1 208 385.4 208 389.7 208C393.9 208 398.2 208 402.5 208C406.7 208 411 208 415.3 208C419.5 208 423.8 208.3 428.1 208C432.3 207.7 436.6 207 440.9 206.5C445.2 206 449.4 204.7 453.7 204.9C458 205.2 462.2 207.7 466.5 208C470.8 208.3 475 206.5 479.3 206.5C483.6 206.5 487.8 209 492.1 208C496.4 207 500.7 200.6 504.9 200.3C509.2 200.1 513.5 208.5 517.7 206.5C522 204.4 526.3 202.6 530.5 188.1C534.8 173.6 539.1 118.5 543.3 119.2C547.6 120 551.9 184.3 556.2 192.7C560.4 201.1 564.7 171.3 569 169.7C573.2 168.2 577.5 180.2 581.8 183.5C586 186.8 590.3 185.6 594.6 189.6C598.8 193.7 603.1 204.9 607.4 208C611.7 211.1 615.9 208.3 620.2 208C624.5 207.7 628.7 206.5 633 206.5C637.3 206.5 641.5 208.3 645.8 208C650.1 207.7 654.3 216.2 658.6 204.9C662.9 193.7 667.2 140.4 671.4 140.7C675.7 140.9 680 195.2 684.2 206.5C688.5 217.7 692.8 214.6 697 208C701.3 201.4 705.6 170.2 709.8 166.7C714.1 163.1 718.4 183 722.7 186.6C726.9 190.1 731.2 191.9 735.5 188.1C739.7 184.3 744 162.3 748.3 163.6C752.5 164.9 756.8 197 761.1 195.8C765.3 194.5 769.6 163.4 773.9 156C778.2 148.6 782.4 144 786.7 151.4C791 158.8 795.2 197.5 799.5 200.3C803.8 203.2 808 179.9 812.3 168.2C816.6 156.5 820.8 137.3 825.1 129.9C829.4 122.5 833.7 121.5 837.9 123.8C842.2 126.1 846.5 148.1 850.7 143.7C855 139.4 859.3 90.4 863.5 97.8C867.8 105.2 872.1 173.3 876.3 188.1C880.6 202.9 884.9 189.6 889.2 186.6C893.4 183.5 897.7 176.9 902 169.7C906.2 162.6 910.5 137.3 914.8 143.7C919 150.1 923.3 198.6 927.6 208C931.8 217.4 936.1 225.3 940.4 200.3C944.7 175.3 948.9 74.1 953.2 58C957.5 41.9 963.9 96.3 966 103.9" fill="none" stroke="#4b69ff" stroke-width="2.5" stroke-linecap="round" stroke-linejoin="round"/>
<g class="dots"><circle cx="338.4" cy="188.1" r="3" fill="#4b69ff"/><circle cx="389.7" cy="208" r="3" fill="#4b69ff"/><circle cx="440.9" cy="206.5" r="3" fill="#4b69ff"/><circle cx="492.1" cy="208" r="3" fill="#4b69ff"/><circle cx="543.3" cy="119.2" r="3" fill="#4b69ff"/><circle cx="594.6" cy="189.6" r="3" fill="#4b69ff"/><circle cx="645.8" cy="208" r="3" fill="#4b69ff"/><circle cx="697" cy="208" r="3" fill="#4b69ff"/><circle cx="748.3" cy="163.6" r="3" fill="#4b69ff"/><circle cx="799.5" cy="200.3" r="3" fill="#4b69ff"/><circle cx="850.7" cy="143.7" r="3" fill="#4b69ff"/><circle cx="902" cy="169.7" r="3" fill="#4b69ff"/><circle cx="953.2" cy="58" r="3" fill="#4b69ff"/><circle cx="966" cy="103.9" r="3" fill="#4b69ff"/><circle cx="966" cy="103.9" r="6" fill="none" stroke="#4b69ff" stroke-width="2" class="now"/></g>
<g class="replay"><circle r="4.5" fill="#fff"><animateMotion dur="7s" repeatCount="indefinite" path="M300 203.4C302.1 199.8 308.5 196 312.8 182C317.1 167.9 321.3 118.2 325.6 119.2C329.9 120.2 334.2 175.9 338.4 188.1C342.7 200.3 347 189.4 351.2 192.7C355.5 196 359.8 205.4 364 208C368.3 210.6 372.6 208 376.8 208C381.1 208 385.4 208 389.7 208C393.9 208 398.2 208 402.5 208C406.7 208 411 208 415.3 208C419.5 208 423.8 208.3 428.1 208C432.3 207.7 436.6 207 440.9 206.5C445.2 206 449.4 204.7 453.7 204.9C458 205.2 462.2 207.7 466.5 208C470.8 208.3 475 206.5 479.3 206.5C483.6 206.5 487.8 209 492.1 208C496.4 207 500.7 200.6 504.9 200.3C509.2 200.1 513.5 208.5 517.7 206.5C522 204.4 526.3 202.6 530.5 188.1C534.8 173.6 539.1 118.5 543.3 119.2C547.6 120 551.9 184.3 556.2 192.7C560.4 201.1 564.7 171.3 569 169.7C573.2 168.2 577.5 180.2 581.8 183.5C586 186.8 590.3 185.6 594.6 189.6C598.8 193.7 603.1 204.9 607.4 208C611.7 211.1 615.9 208.3 620.2 208C624.5 207.7 628.7 206.5 633 206.5C637.3 206.5 641.5 208.3 645.8 208C650.1 207.7 654.3 216.2 658.6 204.9C662.9 193.7 667.2 140.4 671.4 140.7C675.7 140.9 680 195.2 684.2 206.5C688.5 217.7 692.8 214.6 697 208C701.3 201.4 705.6 170.2 709.8 166.7C714.1 163.1 718.4 183 722.7 186.6C726.9 190.1 731.2 191.9 735.5 188.1C739.7 184.3 744 162.3 748.3 163.6C752.5 164.9 756.8 197 761.1 195.8C765.3 194.5 769.6 163.4 773.9 156C778.2 148.6 782.4 144 786.7 151.4C791 158.8 795.2 197.5 799.5 200.3C803.8 203.2 808 179.9 812.3 168.2C816.6 156.5 820.8 137.3 825.1 129.9C829.4 122.5 833.7 121.5 837.9 123.8C842.2 126.1 846.5 148.1 850.7 143.7C855 139.4 859.3 90.4 863.5 97.8C867.8 105.2 872.1 173.3 876.3 188.1C880.6 202.9 884.9 189.6 889.2 186.6C893.4 183.5 897.7 176.9 902 169.7C906.2 162.6 910.5 137.3 914.8 143.7C919 150.1 923.3 198.6 927.6 208C931.8 217.4 936.1 225.3 940.4 200.3C944.7 175.3 948.9 74.1 953.2 58C957.5 41.9 963.9 96.3 966 103.9"/></circle><circle r="10" fill="#4b69ff" fill-opacity="0.35"><animateMotion dur="7s" repeatCount="indefinite" path="M300 203.4C302.1 199.8 308.5 196 312.8 182C317.1 167.9 321.3 118.2 325.6 119.2C329.9 120.2 334.2 175.9 338.4 188.1C342.7 200.3 347 189.4 351.2 192.7C355.5 196 359.8 205.4 364 208C368.3 210.6 372.6 208 376.8 208C381.1 208 385.4 208 389.7 208C393.9 208 398.2 208 402.5 208C406.7 208 411 208 415.3 208C419.5 208 423.8 208.3 428.1 208C432.3 207.7 436.6 207 440.9 206.5C445.2 206 449.4 204.7 453.7 204.9C458 205.2 462.2 207.7 466.5 208C470.8 208.3 475 206.5 479.3 206.5C483.6 206.5 487.8 209 492.1 208C496.4 207 500.7 200.6 504.9 200.3C509.2 200.1 513.5 208.5 517.7 206.5C522 204.4 526.3 202.6 530.5 188.1C534.8 173.6 539.1 118.5 543.3 119.2C547.6 120 551.9 184.3 556.2 192.7C560.4 201.1 564.7 171.3 569 169.7C573.2 168.2 577.5 180.2 581.8 183.5C586 186.8 590.3 185.6 594.6 189.6C598.8 193.7 603.1 204.9 607.4 208C611.7 211.1 615.9 208.3 620.2 208C624.5 207.7 628.7 206.5 633 206.5C637.3 206.5 641.5 208.3 645.8 208C650.1 207.7 654.3 216.2 658.6 204.9C662.9 193.7 667.2 140.4 671.4 140.7C675.7 140.9 680 195.2 684.2 206.5C688.5 217.7 692.8 214.6 697 208C701.3 201.4 705.6 170.2 709.8 166.7C714.1 163.1 718.4 183 722.7 186.6C726.9 190.1 731.2 191.9 735.5 188.1C739.7 184.3 744 162.3 748.3 163.6C752.5 164.9 756.8 197 761.1 195.8C765.3 194.5 769.6 163.4 773.9 156C778.2 148.6 782.4 144 786.7 151.4C791 158.8 795.2 197.5 799.5 200.3C803.8 203.2 808 179.9 812.3 168.2C816.6 156.5 820.8 137.3 825.1 129.9C829.4 122.5 833.7 121.5 837.9 123.8C842.2 126.1 846.5 148.1 850.7 143.7C855 139.4 859.3 90.4 863.5 97.8C867.8 105.2 872.1 173.3 876.3 188.1C880.6 202.9 884.9 189.6 889.2 186.6C893.4 183.5 897.7 176.9 902 169.7C906.2 162.6 910.5 137.3 914.8 143.7C919 150.1 923.3 198.6 927.6 208C931.8 217.4 936.1 225.3 940.4 200.3C944.7 175.3 948.9 74.1 953.2 58C957.5 41.9 963.9 96.3 966 103.9"/></circle></g>
<g transform="translate(30 244)"><rect width="178" height="62" rx="4" fill="#fff" fill-opacity="0.04" stroke="#fff" stroke-opacity="0.07"/><text x="12" y="19" class="tlabel">CURRENT STREAK</text><text x="12" y="47" class="tvalue">13</text><text x="40.2" y="47" class="tsub">days</text></g><g transform="translate(220 244)"><rect width="178" height="62" rx="4" fill="#fff" fill-opacity="0.04" stroke="#fff" stroke-opacity="0.07"/><text x="12" y="19" class="tlabel">LONGEST STREAK</text><text x="12" y="47" class="tvalue">13</text><text x="40.2" y="47" class="tsub">days</text></g><g transform="translate(410 244)"><rect width="178" height="62" rx="4" fill="#fff" fill-opacity="0.04" stroke="#fff" stroke-opacity="0.07"/><text x="12" y="19" class="tlabel">BEST DAY</text><text x="12" y="47" class="tvalue">32</text><text x="40.2" y="47" class="tsub">Jul 8</text></g><g transform="translate(600 244)"><rect width="178" height="62" rx="4" fill="#fff" fill-opacity="0.04" stroke="#fff" stroke-opacity="0.07"/><text x="12" y="19" class="tlabel">PULL REQUESTS</text><text x="12" y="47" class="tvalue">5</text><text x="28.1" y="47" class="tsub">this year</text></g><g transform="translate(790 244)"><rect width="178" height="62" rx="4" fill="#fff" fill-opacity="0.04" stroke="#fff" stroke-opacity="0.07"/><text x="12" y="19" class="tlabel">TOP LANGUAGE</text><text x="12" y="47" class="tvalue">TypeScript</text><text x="137" y="47" class="tsub">31% of code</text></g>
<g clip-path="url(#barclip)"><rect x="30" y="322" width="295.5" height="6" fill="#3178c6"/><rect x="325.5" y="322" width="268" height="6" fill="#f34b7d"/><rect x="593.5" y="322" width="207.3" height="6" fill="#3572A5"/><rect x="800.8" y="322" width="133.5" height="6" fill="#f1e05a"/><rect x="934.3" y="322" width="19.4" height="6" fill="#663399"/><rect x="953.7" y="322" width="5.6" height="6" fill="#e34c26"/></g>
<circle cx="34" cy="343" r="3.5" fill="#3178c6"/><text x="42" y="347" class="lang">TypeScript 31%</text><circle cx="146.7" cy="343" r="3.5" fill="#f34b7d"/><text x="154.7" y="347" class="lang">C++ 29%</text><circle cx="217.04999999999998" cy="343" r="3.5" fill="#3572A5"/><text x="225.04999999999998" y="347" class="lang">Python 22%</text><circle cx="305.54999999999995" cy="343" r="3.5" fill="#f1e05a"/><text x="313.54999999999995" y="347" class="lang">JavaScript 14%</text><circle cx="418.24999999999994" cy="343" r="3.5" fill="#663399"/><text x="426.24999999999994" y="347" class="lang">CSS 2%</text><circle cx="482.54999999999995" cy="343" r="3.5" fill="#e34c26"/><text x="490.54999999999995" y="347" class="lang">HTML 1%</text>
</g>
</svg>
